# MagicaVoxel @ Ephtracy

# group
o 

# material
mtllib PictureFrame.mtl
usemtl palette

# normals
vn -1 0 0
vn 1 0 0
vn 0 0 1
vn 0 0 -1
vn 0 -1 0
vn 0 1 0

# texcoords
vt 0.00195313 0.5
vt 0.185547 0.5
vt 0.369141 0.5
vt 0.373047 0.5
vt 0.533203 0.5

# verts
v 0 2.3 -3.2
v 0 2.3 -4
v 0 2.5 -3.2
v 0 2.5 -3.3
v 0 2.6 -3.3
v 0 2.6 -3.6
v 0 2.6 -3.8
v 0 2.6 -4
v 0 7.5 -3.3
v 0 7.5 -3.6
v 0 7.5 -3.8
v 0 7.5 -4
v 0 7.6 -3.2
v 0 7.6 -3.3
v 0 7.7 -3.2
v 0 7.7 -3.3
v 0 7.8 -3.3
v 0 7.8 -4
v 0.1 2.2 -3.5
v 0.1 2.2 -3.7
v 0.1 2.3 -3.5
v 0.1 2.3 -3.7
v 0.1 2.5 -3.2
v 0.1 2.5 -3.3
v 0.1 2.6 -3.2
v 0.1 2.6 -3.3
v 0.1 2.6 -3.4
v 0.1 2.6 -3.6
v 0.1 2.6 -3.8
v 0.1 2.6 -4
v 0.1 2.7 -3.4
v 0.1 2.7 -3.5
v 0.1 7.4 -3.4
v 0.1 7.4 -3.5
v 0.1 7.5 -3.2
v 0.1 7.5 -3.3
v 0.1 7.5 -3.4
v 0.1 7.5 -3.6
v 0.1 7.5 -3.8
v 0.1 7.5 -4
v 0.1 7.6 -3.2
v 0.1 7.6 -3.3
v 0.1 7.7 -3.2
v 0.1 7.7 -3.3
v 0.1 7.8 -3.2
v 0.1 7.8 -3.3
v 0.1 7.8 -3.9
v 0.1 7.9 -3.3
v 0.1 7.9 -3.9
v 0.2 2.6 -3.3
v 0.2 2.6 -3.4
v 0.2 2.7 -3.3
v 0.2 2.7 -3.4
v 0.2 2.7 -3.5
v 0.2 7.4 -3.3
v 0.2 7.4 -3.4
v 0.2 7.4 -3.5
v 0.2 7.5 -3.3
v 0.2 7.5 -3.4
v 3.5 2.8 -3.4
v 3.5 2.8 -3.5
v 3.5 2.9 -3.4
v 3.5 2.9 -3.5
v 3.5 7.2 -3.4
v 3.5 7.2 -3.5
v 3.5 7.3 -3.4
v 3.5 7.3 -3.5
v 3.6 2.9 -3.4
v 3.6 2.9 -3.5
v 3.6 3 -3.4
v 3.6 3 -3.5
v 3.6 7.1 -3.4
v 3.6 7.1 -3.5
v 3.6 7.2 -3.4
v 3.6 7.2 -3.5
v 3.7 3 -3.4
v 3.7 3 -3.5
v 3.7 7.1 -3.4
v 3.7 7.1 -3.5
v 3.9 2.3 -3.2
v 3.9 2.3 -3.3
v 3.9 2.4 -3.2
v 3.9 2.4 -3.3
v 0.2 2.3 -3.2
v 0.2 2.3 -3.3
v 0.2 2.4 -3.2
v 0.2 2.4 -3.3
v 0.3 3 -3.4
v 0.3 3 -3.5
v 0.3 7.1 -3.4
v 0.3 7.1 -3.5
v 0.4 2.9 -3.4
v 0.4 2.9 -3.5
v 0.4 3 -3.4
v 0.4 3 -3.5
v 0.4 7.1 -3.4
v 0.4 7.1 -3.5
v 0.4 7.2 -3.4
v 0.4 7.2 -3.5
v 0.5 2.8 -3.4
v 0.5 2.8 -3.5
v 0.5 2.9 -3.4
v 0.5 2.9 -3.5
v 0.5 7.2 -3.4
v 0.5 7.2 -3.5
v 0.5 7.3 -3.4
v 0.5 7.3 -3.5
v 3.8 2.6 -3.3
v 3.8 2.6 -3.4
v 3.8 2.7 -3.3
v 3.8 2.7 -3.4
v 3.8 2.7 -3.5
v 3.8 7.4 -3.3
v 3.8 7.4 -3.4
v 3.8 7.4 -3.5
v 3.8 7.5 -3.3
v 3.8 7.5 -3.4
v 3.9 2.2 -3.5
v 3.9 2.2 -3.7
v 3.9 2.3 -3.5
v 3.9 2.3 -3.7
v 3.9 2.5 -3.2
v 3.9 2.5 -3.3
v 3.9 2.6 -3.2
v 3.9 2.6 -3.3
v 3.9 2.6 -3.4
v 3.9 2.6 -3.6
v 3.9 2.6 -3.8
v 3.9 2.6 -4
v 3.9 2.7 -3.4
v 3.9 2.7 -3.5
v 3.9 7.4 -3.4
v 3.9 7.4 -3.5
v 3.9 7.5 -3.2
v 3.9 7.5 -3.3
v 3.9 7.5 -3.4
v 3.9 7.5 -3.6
v 3.9 7.5 -3.8
v 3.9 7.5 -4
v 3.9 7.6 -3.2
v 3.9 7.6 -3.3
v 3.9 7.7 -3.2
v 3.9 7.7 -3.3
v 3.9 7.8 -3.2
v 3.9 7.8 -3.3
v 3.9 7.8 -3.9
v 3.9 7.9 -3.3
v 3.9 7.9 -3.9
v 4 2.3 -3.2
v 4 2.3 -4
v 4 2.5 -3.2
v 4 2.5 -3.3
v 4 2.6 -3.3
v 4 2.6 -3.6
v 4 2.6 -3.8
v 4 2.6 -4
v 4 7.5 -3.3
v 4 7.5 -3.6
v 4 7.5 -3.8
v 4 7.5 -4
v 4 7.6 -3.2
v 4 7.6 -3.3
v 4 7.7 -3.2
v 4 7.7 -3.3
v 4 7.8 -3.3
v 4 7.8 -4
v 0 2.3 -3.2
v 0 2.5 -3.2
v 0 7.6 -3.2
v 0 7.7 -3.2
v 0.1 2.5 -3.2
v 0.1 2.6 -3.2
v 0.1 7.5 -3.2
v 0.1 7.6 -3.2
v 0.1 7.7 -3.2
v 0.1 7.8 -3.2
v 0.2 2.3 -3.2
v 0.2 2.4 -3.2
v 1.4 7.6 -3.2
v 1.4 7.7 -3.2
v 2.6 7.6 -3.2
v 2.6 7.7 -3.2
v 3.9 2.3 -3.2
v 3.9 2.4 -3.2
v 3.9 2.5 -3.2
v 3.9 2.6 -3.2
v 3.9 7.5 -3.2
v 3.9 7.6 -3.2
v 3.9 7.7 -3.2
v 3.9 7.8 -3.2
v 4 2.3 -3.2
v 4 2.5 -3.2
v 4 7.6 -3.2
v 4 7.7 -3.2
v 0 2.5 -3.3
v 0 2.6 -3.3
v 0 7.5 -3.3
v 0 7.6 -3.3
v 0 7.7 -3.3
v 0 7.8 -3.3
v 0.1 2.5 -3.3
v 0.1 2.6 -3.3
v 0.1 7.5 -3.3
v 0.1 7.6 -3.3
v 0.1 7.7 -3.3
v 0.1 7.8 -3.3
v 0.1 7.9 -3.3
v 0.2 2.3 -3.3
v 0.2 2.4 -3.3
v 0.2 2.6 -3.3
v 0.2 2.7 -3.3
v 0.2 7.4 -3.3
v 0.2 7.5 -3.3
v 3.8 2.6 -3.3
v 3.8 2.7 -3.3
v 3.8 7.4 -3.3
v 3.8 7.5 -3.3
v 3.9 2.3 -3.3
v 3.9 2.4 -3.3
v 3.9 2.5 -3.3
v 3.9 2.6 -3.3
v 3.9 7.5 -3.3
v 3.9 7.6 -3.3
v 3.9 7.7 -3.3
v 3.9 7.8 -3.3
v 3.9 7.9 -3.3
v 4 2.5 -3.3
v 4 2.6 -3.3
v 4 7.5 -3.3
v 4 7.6 -3.3
v 4 7.7 -3.3
v 4 7.8 -3.3
v 0.1 2.6 -3.4
v 0.1 2.7 -3.4
v 0.1 7.4 -3.4
v 0.1 7.5 -3.4
v 0.2 2.6 -3.4
v 0.2 2.7 -3.4
v 0.2 7.4 -3.4
v 0.2 7.5 -3.4
v 0.3 3 -3.4
v 0.3 7.1 -3.4
v 0.4 2.9 -3.4
v 0.4 3 -3.4
v 0.4 7.1 -3.4
v 0.4 7.2 -3.4
v 0.5 2.8 -3.4
v 0.5 2.9 -3.4
v 0.5 7.2 -3.4
v 0.5 7.3 -3.4
v 3.5 2.8 -3.4
v 3.5 2.9 -3.4
v 3.5 7.2 -3.4
v 3.5 7.3 -3.4
v 3.6 2.9 -3.4
v 3.6 3 -3.4
v 3.6 7.1 -3.4
v 3.6 7.2 -3.4
v 3.7 3 -3.4
v 3.7 7.1 -3.4
v 3.8 2.6 -3.4
v 3.8 2.7 -3.4
v 3.8 7.4 -3.4
v 3.8 7.5 -3.4
v 3.9 2.6 -3.4
v 3.9 2.7 -3.4
v 3.9 7.4 -3.4
v 3.9 7.5 -3.4
v 0.1 2.2 -3.5
v 0.1 2.3 -3.5
v 0.1 2.7 -3.5
v 0.1 7.4 -3.5
v 0.2 2.7 -3.5
v 0.2 7.4 -3.5
v 0.3 3 -3.5
v 0.3 7.1 -3.5
v 0.4 2.9 -3.5
v 0.4 3 -3.5
v 0.4 7.1 -3.5
v 0.4 7.2 -3.5
v 0.5 2.8 -3.5
v 0.5 2.9 -3.5
v 0.5 7.2 -3.5
v 0.5 7.3 -3.5
v 3.5 2.8 -3.5
v 3.5 2.9 -3.5
v 3.5 7.2 -3.5
v 3.5 7.3 -3.5
v 3.6 2.9 -3.5
v 3.6 3 -3.5
v 3.6 7.1 -3.5
v 3.6 7.2 -3.5
v 3.7 3 -3.5
v 3.7 7.1 -3.5
v 3.8 2.7 -3.5
v 3.8 7.4 -3.5
v 3.9 2.2 -3.5
v 3.9 2.3 -3.5
v 3.9 2.7 -3.5
v 3.9 7.4 -3.5
v 0 2.6 -3.6
v 0 7.5 -3.6
v 0.1 2.6 -3.6
v 0.1 7.5 -3.6
v 3.9 2.6 -3.6
v 3.9 7.5 -3.6
v 4 2.6 -3.6
v 4 7.5 -3.6
v 0.1 2.2 -3.7
v 0.1 2.3 -3.7
v 3.9 2.2 -3.7
v 3.9 2.3 -3.7
v 0 2.6 -3.8
v 0 7.5 -3.8
v 0.1 2.6 -3.8
v 0.1 7.5 -3.8
v 3.9 2.6 -3.8
v 3.9 7.5 -3.8
v 4 2.6 -3.8
v 4 7.5 -3.8
v 0.1 7.8 -3.9
v 0.1 7.9 -3.9
v 3.9 7.8 -3.9
v 3.9 7.9 -3.9
v 0 2.3 -4
v 0 2.6 -4
v 0 7.5 -4
v 0 7.8 -4
v 0.1 2.6 -4
v 0.1 7.5 -4
v 3.9 2.6 -4
v 3.9 7.5 -4
v 4 2.3 -4
v 4 2.6 -4
v 4 7.5 -4
v 4 7.8 -4
v 0.1 2.2 -3.5
v 3.9 2.2 -3.5
v 0.1 2.2 -3.7
v 3.9 2.2 -3.7
v 0 2.3 -3.2
v 0.2 2.3 -3.2
v 3.9 2.3 -3.2
v 4 2.3 -3.2
v 0.2 2.3 -3.3
v 3.9 2.3 -3.3
v 0.1 2.3 -3.5
v 3.9 2.3 -3.5
v 0.1 2.3 -3.7
v 3.9 2.3 -3.7
v 0 2.3 -4
v 4 2.3 -4
v 0.2 2.4 -3.2
v 3.9 2.4 -3.2
v 0.2 2.4 -3.3
v 3.9 2.4 -3.3
v 0.3 7.1 -3.4
v 0.4 7.1 -3.4
v 3.6 7.1 -3.4
v 3.7 7.1 -3.4
v 0.3 7.1 -3.5
v 0.4 7.1 -3.5
v 3.6 7.1 -3.5
v 3.7 7.1 -3.5
v 0.4 7.2 -3.4
v 0.5 7.2 -3.4
v 3.5 7.2 -3.4
v 3.6 7.2 -3.4
v 0.4 7.2 -3.5
v 0.5 7.2 -3.5
v 3.5 7.2 -3.5
v 3.6 7.2 -3.5
v 0.5 7.3 -3.4
v 3.5 7.3 -3.4
v 0.5 7.3 -3.5
v 3.5 7.3 -3.5
v 0.2 7.4 -3.3
v 3.8 7.4 -3.3
v 0.1 7.4 -3.4
v 0.2 7.4 -3.4
v 3.8 7.4 -3.4
v 3.9 7.4 -3.4
v 0.1 7.4 -3.5
v 0.2 7.4 -3.5
v 3.8 7.4 -3.5
v 3.9 7.4 -3.5
v 0.1 7.5 -3.2
v 3.9 7.5 -3.2
v 0 7.5 -3.3
v 0.1 7.5 -3.3
v 0.2 7.5 -3.3
v 3.8 7.5 -3.3
v 3.9 7.5 -3.3
v 4 7.5 -3.3
v 0.1 7.5 -3.4
v 0.2 7.5 -3.4
v 3.8 7.5 -3.4
v 3.9 7.5 -3.4
v 0 7.5 -3.6
v 0.1 7.5 -3.6
v 3.9 7.5 -3.6
v 4 7.5 -3.6
v 0 7.5 -3.8
v 0.1 7.5 -3.8
v 3.9 7.5 -3.8
v 4 7.5 -3.8
v 0 7.5 -4
v 0.1 7.5 -4
v 3.9 7.5 -4
v 4 7.5 -4
v 0 7.6 -3.2
v 0.1 7.6 -3.2
v 3.9 7.6 -3.2
v 4 7.6 -3.2
v 0 7.6 -3.3
v 0.1 7.6 -3.3
v 3.9 7.6 -3.3
v 4 7.6 -3.3
v 0 2.5 -3.2
v 0.1 2.5 -3.2
v 3.9 2.5 -3.2
v 4 2.5 -3.2
v 0 2.5 -3.3
v 0.1 2.5 -3.3
v 3.9 2.5 -3.3
v 4 2.5 -3.3
v 0.1 2.6 -3.2
v 3.9 2.6 -3.2
v 0 2.6 -3.3
v 0.1 2.6 -3.3
v 0.2 2.6 -3.3
v 3.8 2.6 -3.3
v 3.9 2.6 -3.3
v 4 2.6 -3.3
v 0.1 2.6 -3.4
v 0.2 2.6 -3.4
v 3.8 2.6 -3.4
v 3.9 2.6 -3.4
v 0 2.6 -3.6
v 0.1 2.6 -3.6
v 3.9 2.6 -3.6
v 4 2.6 -3.6
v 0 2.6 -3.8
v 0.1 2.6 -3.8
v 3.9 2.6 -3.8
v 4 2.6 -3.8
v 0 2.6 -4
v 0.1 2.6 -4
v 3.9 2.6 -4
v 4 2.6 -4
v 0.2 2.7 -3.3
v 3.8 2.7 -3.3
v 0.1 2.7 -3.4
v 0.2 2.7 -3.4
v 3.8 2.7 -3.4
v 3.9 2.7 -3.4
v 0.1 2.7 -3.5
v 0.2 2.7 -3.5
v 3.8 2.7 -3.5
v 3.9 2.7 -3.5
v 0.5 2.8 -3.4
v 3.5 2.8 -3.4
v 0.5 2.8 -3.5
v 3.5 2.8 -3.5
v 0.4 2.9 -3.4
v 0.5 2.9 -3.4
v 3.5 2.9 -3.4
v 3.6 2.9 -3.4
v 0.4 2.9 -3.5
v 0.5 2.9 -3.5
v 3.5 2.9 -3.5
v 3.6 2.9 -3.5
v 0.3 3 -3.4
v 0.4 3 -3.4
v 3.6 3 -3.4
v 3.7 3 -3.4
v 0.3 3 -3.5
v 0.4 3 -3.5
v 3.6 3 -3.5
v 3.7 3 -3.5
v 0 7.7 -3.2
v 0.1 7.7 -3.2
v 3.9 7.7 -3.2
v 4 7.7 -3.2
v 0 7.7 -3.3
v 0.1 7.7 -3.3
v 3.9 7.7 -3.3
v 4 7.7 -3.3
v 0.1 7.8 -3.2
v 3.9 7.8 -3.2
v 0 7.8 -3.3
v 0.1 7.8 -3.3
v 3.9 7.8 -3.3
v 4 7.8 -3.3
v 0.1 7.8 -3.9
v 3.9 7.8 -3.9
v 0 7.8 -4
v 4 7.8 -4
v 0.1 7.9 -3.3
v 3.9 7.9 -3.3
v 0.1 7.9 -3.9
v 3.9 7.9 -3.9

# faces
f 3/4/1 2/4/1 1/4/1
f 4/4/1 2/4/1 3/4/1
f 5/4/1 2/4/1 4/4/1
f 6/4/1 2/4/1 5/4/1
f 7/4/1 2/4/1 6/4/1
f 8/4/1 2/4/1 7/4/1
f 10/4/1 7/4/1 6/4/1
f 11/4/1 7/4/1 10/4/1
f 14/4/1 10/4/1 9/4/1
f 14/4/1 12/4/1 11/4/1
f 14/4/1 11/4/1 10/4/1
f 15/4/1 14/4/1 13/4/1
f 16/4/1 12/4/1 14/4/1
f 16/4/1 14/4/1 15/4/1
f 17/4/1 12/4/1 16/4/1
f 18/4/1 12/4/1 17/4/1
f 21/5/1 20/5/1 19/5/1
f 22/5/1 20/5/1 21/5/1
f 25/4/1 24/4/1 23/4/1
f 26/4/1 24/4/1 25/4/1
f 31/4/1 28/4/1 27/4/1
f 32/4/1 28/4/1 31/4/1
f 34/4/1 28/4/1 32/4/1
f 37/4/1 34/4/1 33/4/1
f 38/4/1 28/4/1 34/4/1
f 38/4/1 34/4/1 37/4/1
f 39/4/1 30/4/1 29/4/1
f 40/4/1 30/4/1 39/4/1
f 41/4/1 36/4/1 35/4/1
f 42/4/1 36/4/1 41/4/1
f 45/4/1 44/4/1 43/4/1
f 46/4/1 44/4/1 45/4/1
f 48/4/1 47/4/1 46/4/1
f 49/4/1 47/4/1 48/4/1
f 52/4/1 51/4/1 50/4/1
f 53/4/1 51/4/1 52/4/1
f 56/4/1 54/4/1 53/4/1
f 57/4/1 54/4/1 56/4/1
f 58/4/1 56/4/1 55/4/1
f 59/4/1 56/4/1 58/4/1
f 62/4/1 61/4/1 60/4/1
f 63/4/1 61/4/1 62/4/1
f 66/4/1 65/4/1 64/4/1
f 67/4/1 65/4/1 66/4/1
f 70/4/1 69/4/1 68/4/1
f 71/4/1 69/4/1 70/4/1
f 74/4/1 73/4/1 72/4/1
f 75/4/1 73/4/1 74/4/1
f 78/4/1 77/4/1 76/4/1
f 79/4/1 77/4/1 78/4/1
f 82/4/1 81/4/1 80/4/1
f 83/4/1 81/4/1 82/4/1
f 84/4/2 85/4/2 86/4/2
f 86/4/2 85/4/2 87/4/2
f 88/4/2 89/4/2 90/4/2
f 90/4/2 89/4/2 91/4/2
f 92/4/2 93/4/2 94/4/2
f 94/4/2 93/4/2 95/4/2
f 96/4/2 97/4/2 98/4/2
f 98/4/2 97/4/2 99/4/2
f 100/4/2 101/4/2 102/4/2
f 102/4/2 101/4/2 103/4/2
f 104/4/2 105/4/2 106/4/2
f 106/4/2 105/4/2 107/4/2
f 108/4/2 109/4/2 110/4/2
f 110/4/2 109/4/2 111/4/2
f 111/4/2 112/4/2 114/4/2
f 114/4/2 112/4/2 115/4/2
f 113/4/2 114/4/2 116/4/2
f 116/4/2 114/4/2 117/4/2
f 118/5/2 119/5/2 120/5/2
f 120/5/2 119/5/2 121/5/2
f 122/4/2 123/4/2 124/4/2
f 124/4/2 123/4/2 125/4/2
f 126/4/2 127/4/2 130/4/2
f 130/4/2 127/4/2 131/4/2
f 131/4/2 127/4/2 133/4/2
f 132/4/2 133/4/2 136/4/2
f 133/4/2 127/4/2 137/4/2
f 136/4/2 133/4/2 137/4/2
f 128/4/2 129/4/2 138/4/2
f 138/4/2 129/4/2 139/4/2
f 134/4/2 135/4/2 140/4/2
f 140/4/2 135/4/2 141/4/2
f 142/4/2 143/4/2 144/4/2
f 144/4/2 143/4/2 145/4/2
f 145/4/2 146/4/2 147/4/2
f 147/4/2 146/4/2 148/4/2
f 149/4/2 150/4/2 151/4/2
f 151/4/2 150/4/2 152/4/2
f 152/4/2 150/4/2 153/4/2
f 153/4/2 150/4/2 154/4/2
f 154/4/2 150/4/2 155/4/2
f 155/4/2 150/4/2 156/4/2
f 154/4/2 155/4/2 158/4/2
f 158/4/2 155/4/2 159/4/2
f 157/4/2 158/4/2 162/4/2
f 159/4/2 160/4/2 162/4/2
f 158/4/2 159/4/2 162/4/2
f 161/4/2 162/4/2 163/4/2
f 162/4/2 160/4/2 164/4/2
f 163/4/2 162/4/2 164/4/2
f 164/4/2 160/4/2 165/4/2
f 165/4/2 160/4/2 166/4/2
f 171/4/3 168/4/3 167/4/3
f 174/4/3 170/4/3 169/4/3
f 175/4/3 170/4/3 174/4/3
f 177/4/3 172/4/3 171/4/3
f 177/4/3 171/4/3 167/4/3
f 178/4/3 172/4/3 177/4/3
f 179/4/3 176/4/3 175/4/3
f 179/4/3 175/4/3 174/4/3
f 179/4/3 174/4/3 173/4/3
f 180/4/3 176/4/3 179/4/3
f 181/4/3 179/4/3 173/4/3
f 181/2/3 180/2/3 179/2/3
f 182/4/3 176/4/3 180/4/3
f 182/2/3 180/2/3 181/2/3
f 184/4/3 172/4/3 178/4/3
f 185/4/3 172/4/3 184/4/3
f 186/4/3 172/4/3 185/4/3
f 187/4/3 181/4/3 173/4/3
f 187/4/3 182/4/3 181/4/3
f 188/4/3 182/4/3 187/4/3
f 189/4/3 176/4/3 182/4/3
f 189/4/3 182/4/3 188/4/3
f 190/4/3 176/4/3 189/4/3
f 191/4/3 185/4/3 184/4/3
f 191/4/3 184/4/3 183/4/3
f 192/4/3 185/4/3 191/4/3
f 193/4/3 189/4/3 188/4/3
f 194/4/3 189/4/3 193/4/3
f 201/4/3 196/4/3 195/4/3
f 202/4/3 196/4/3 201/4/3
f 203/4/3 198/4/3 197/4/3
f 204/4/3 198/4/3 203/4/3
f 205/4/3 200/4/3 199/4/3
f 206/4/3 200/4/3 205/4/3
f 214/4/3 211/4/3 210/4/3
f 215/4/3 211/4/3 214/4/3
f 216/4/3 213/4/3 212/4/3
f 217/4/3 213/4/3 216/4/3
f 218/4/3 209/4/3 208/4/3
f 219/4/3 209/4/3 218/4/3
f 225/4/3 207/4/3 206/4/3
f 226/4/3 207/4/3 225/4/3
f 227/4/3 221/4/3 220/4/3
f 228/4/3 221/4/3 227/4/3
f 229/4/3 223/4/3 222/4/3
f 230/4/3 223/4/3 229/4/3
f 231/4/3 225/4/3 224/4/3
f 232/4/3 225/4/3 231/4/3
f 237/4/3 234/4/3 233/4/3
f 238/4/3 234/4/3 237/4/3
f 239/4/3 236/4/3 235/4/3
f 240/4/3 236/4/3 239/4/3
f 241/4/3 239/4/3 238/4/3
f 242/4/3 239/4/3 241/4/3
f 243/4/3 241/4/3 238/4/3
f 244/4/3 241/4/3 243/4/3
f 245/4/3 239/4/3 242/4/3
f 246/4/3 239/4/3 245/4/3
f 247/4/3 243/4/3 238/4/3
f 248/4/3 243/4/3 247/4/3
f 249/4/3 239/4/3 246/4/3
f 250/4/3 239/4/3 249/4/3
f 251/4/3 247/4/3 238/4/3
f 254/4/3 239/4/3 250/4/3
f 255/4/3 252/4/3 251/4/3
f 258/4/3 254/4/3 253/4/3
f 259/4/3 256/4/3 255/4/3
f 260/4/3 258/4/3 257/4/3
f 262/4/3 259/4/3 255/4/3
f 262/4/3 260/4/3 259/4/3
f 262/4/3 251/4/3 238/4/3
f 262/4/3 255/4/3 251/4/3
f 263/4/3 258/4/3 260/4/3
f 263/4/3 239/4/3 254/4/3
f 263/4/3 260/4/3 262/4/3
f 263/4/3 254/4/3 258/4/3
f 265/4/3 262/4/3 261/4/3
f 266/4/3 262/4/3 265/4/3
f 267/4/3 264/4/3 263/4/3
f 268/4/3 264/4/3 267/4/3
f 273/4/3 272/4/3 271/4/3
f 274/4/3 272/4/3 273/4/3
f 278/3/3 276/3/3 275/3/3
f 279/3/3 276/3/3 278/3/3
f 282/3/3 278/3/3 277/3/3
f 282/3/3 280/3/3 279/3/3
f 282/3/3 279/3/3 278/3/3
f 283/3/3 280/3/3 282/3/3
f 285/3/3 282/3/3 281/3/3
f 285/3/3 284/3/3 283/3/3
f 285/3/3 283/3/3 282/3/3
f 286/3/3 284/3/3 285/3/3
f 287/3/3 284/3/3 286/3/3
f 288/3/3 284/3/3 287/3/3
f 289/3/3 287/3/3 286/3/3
f 290/3/3 287/3/3 289/3/3
f 291/3/3 287/3/3 290/3/3
f 292/3/3 287/3/3 291/3/3
f 293/3/3 291/3/3 290/3/3
f 294/3/3 291/3/3 293/3/3
f 297/5/3 270/5/3 269/5/3
f 298/5/3 270/5/3 297/5/3
f 299/4/3 296/4/3 295/4/3
f 300/4/3 296/4/3 299/4/3
f 303/4/3 302/4/3 301/4/3
f 304/4/3 302/4/3 303/4/3
f 307/4/3 306/4/3 305/4/3
f 308/4/3 306/4/3 307/4/3
f 309/5/4 310/5/4 311/5/4
f 311/5/4 310/5/4 312/5/4
f 313/4/4 314/4/4 315/4/4
f 315/4/4 314/4/4 316/4/4
f 317/4/4 318/4/4 319/4/4
f 319/4/4 318/4/4 320/4/4
f 321/4/4 322/4/4 323/4/4
f 323/4/4 322/4/4 324/4/4
f 325/4/4 326/4/4 329/4/4
f 327/4/4 328/4/4 330/4/4
f 325/4/4 329/4/4 331/4/4
f 329/4/4 330/4/4 331/4/4
f 330/4/4 328/4/4 332/4/4
f 331/4/4 330/4/4 332/4/4
f 325/4/4 331/4/4 333/4/4
f 333/4/4 331/4/4 334/4/4
f 332/4/4 328/4/4 335/4/4
f 335/4/4 328/4/4 336/4/4
f 339/5/5 338/5/5 337/5/5
f 340/5/5 338/5/5 339/5/5
f 345/4/5 342/4/5 341/4/5
f 346/4/5 344/4/5 343/4/5
f 347/4/5 345/4/5 341/4/5
f 347/4/5 346/4/5 345/4/5
f 348/4/5 344/4/5 346/4/5
f 348/4/5 346/4/5 347/4/5
f 349/4/5 347/4/5 341/4/5
f 350/4/5 344/4/5 348/4/5
f 351/4/5 349/4/5 341/4/5
f 351/4/5 350/4/5 349/4/5
f 352/4/5 344/4/5 350/4/5
f 352/4/5 350/4/5 351/4/5
f 355/4/5 354/4/5 353/4/5
f 356/4/5 354/4/5 355/4/5
f 361/4/5 358/4/5 357/4/5
f 362/4/5 358/4/5 361/4/5
f 363/4/5 360/4/5 359/4/5
f 364/4/5 360/4/5 363/4/5
f 369/4/5 366/4/5 365/4/5
f 370/4/5 366/4/5 369/4/5
f 371/4/5 368/4/5 367/4/5
f 372/4/5 368/4/5 371/4/5
f 375/4/5 374/4/5 373/4/5
f 376/4/5 374/4/5 375/4/5
f 380/4/5 378/4/5 377/4/5
f 381/4/5 378/4/5 380/4/5
f 383/4/5 380/4/5 379/4/5
f 384/4/5 380/4/5 383/4/5
f 385/4/5 382/4/5 381/4/5
f 386/4/5 382/4/5 385/4/5
f 390/4/5 388/4/5 387/4/5
f 391/4/5 388/4/5 390/4/5
f 392/4/5 388/4/5 391/4/5
f 393/4/5 388/4/5 392/4/5
f 395/4/5 390/4/5 389/4/5
f 395/4/5 391/4/5 390/4/5
f 396/4/5 391/4/5 395/4/5
f 397/4/5 394/4/5 393/4/5
f 397/4/5 393/4/5 392/4/5
f 398/4/5 394/4/5 397/4/5
f 399/4/5 395/4/5 389/4/5
f 400/4/5 395/4/5 399/4/5
f 401/4/5 394/4/5 398/4/5
f 402/4/5 394/4/5 401/4/5
f 407/4/5 404/4/5 403/4/5
f 408/4/5 404/4/5 407/4/5
f 409/4/5 406/4/5 405/4/5
f 410/4/5 406/4/5 409/4/5
f 415/4/5 412/4/5 411/4/5
f 416/4/5 412/4/5 415/4/5
f 417/4/5 414/4/5 413/4/5
f 418/4/5 414/4/5 417/4/5
f 419/4/6 420/4/6 423/4/6
f 423/4/6 420/4/6 424/4/6
f 421/4/6 422/4/6 425/4/6
f 425/4/6 422/4/6 426/4/6
f 427/4/6 428/4/6 430/4/6
f 430/4/6 428/4/6 431/4/6
f 431/4/6 428/4/6 432/4/6
f 432/4/6 428/4/6 433/4/6
f 429/4/6 430/4/6 435/4/6
f 430/4/6 431/4/6 435/4/6
f 435/4/6 431/4/6 436/4/6
f 433/4/6 434/4/6 437/4/6
f 432/4/6 433/4/6 437/4/6
f 437/4/6 434/4/6 438/4/6
f 429/4/6 435/4/6 439/4/6
f 439/4/6 435/4/6 440/4/6
f 438/4/6 434/4/6 441/4/6
f 441/4/6 434/4/6 442/4/6
f 443/4/6 444/4/6 447/4/6
f 447/4/6 444/4/6 448/4/6
f 445/4/6 446/4/6 449/4/6
f 449/4/6 446/4/6 450/4/6
f 451/4/6 452/4/6 454/4/6
f 454/4/6 452/4/6 455/4/6
f 453/4/6 454/4/6 457/4/6
f 457/4/6 454/4/6 458/4/6
f 455/4/6 456/4/6 459/4/6
f 459/4/6 456/4/6 460/4/6
f 461/4/6 462/4/6 463/4/6
f 463/4/6 462/4/6 464/4/6
f 465/4/6 466/4/6 469/4/6
f 469/4/6 466/4/6 470/4/6
f 467/4/6 468/4/6 471/4/6
f 471/4/6 468/4/6 472/4/6
f 473/4/6 474/4/6 477/4/6
f 477/4/6 474/4/6 478/4/6
f 475/4/6 476/4/6 479/4/6
f 479/4/6 476/4/6 480/4/6
f 481/4/6 482/4/6 485/4/6
f 485/4/6 482/4/6 486/4/6
f 483/4/6 484/4/6 487/4/6
f 487/4/6 484/4/6 488/4/6
f 489/4/6 490/4/6 492/4/6
f 492/4/6 490/4/6 493/4/6
f 491/4/6 492/4/6 495/4/6
f 493/4/6 494/4/6 496/4/6
f 491/4/6 495/4/6 497/4/6
f 495/4/6 496/4/6 497/4/6
f 496/4/6 494/4/6 498/4/6
f 497/4/6 496/4/6 498/4/6
f 499/4/6 500/4/6 501/4/6
f 501/4/6 500/4/6 502/4/6
